<?xml version="1.0" encoding="UTF-8" standalone="no"?>
<!DOCTYPE svg PUBLIC "-//W3C//DTD SVG 1.1//EN"
 "http://www.w3.org/Graphics/SVG/1.1/DTD/svg11.dtd">
<!-- Generated by graphviz version 2.26.3 (20100126.1600)
 -->
<!-- Title: g Pages: 1 -->
<svg width="175pt" height="140pt"
 viewBox="0.00 0.00 175.00 140.00" xmlns="http://www.w3.org/2000/svg" xmlns:xlink="http://www.w3.org/1999/xlink">
<g id="graph1" class="graph" transform="scale(1 1) rotate(0) translate(4 136)">
<title>g</title>
<polygon fill="white" stroke="white" points="-4,5 -4,-136 172,-136 172,5 -4,5"/>
<!-- N0 -->
<g id="node1" class="node"><title>N0</title>
<polygon fill="#ffffff" stroke="#ffffff" stroke-width="1.5" points="12,-95 42,-95 54,-107 54,-119 42,-131 12,-131 0,-119 0,-107 12,-95"/>
<path fill="#ffffff" stroke="#ffffff" stroke-width="1.5" d="M42,-95C48,-95 54,-101 54,-107"/>
<path fill="#ffffff" stroke="#ffffff" stroke-width="1.5" d="M54,-119C54,-125 48,-131 42,-131"/>
<path fill="#ffffff" stroke="#ffffff" stroke-width="1.5" d="M12,-131C6,-131 0,-125 0,-119"/>
<path fill="#ffffff" stroke="#ffffff" stroke-width="1.5" d="M0,-107C0,-101 6,-95 12,-95"/>
<polyline fill="none" stroke="#2e3436" stroke-width="1.5" points="12,-95 42,-95 "/>
<path fill="none" stroke="#2e3436" stroke-width="1.5" d="M42,-95C48,-95 54,-101 54,-107"/>
<polyline fill="none" stroke="#2e3436" stroke-width="1.5" points="54,-107 54,-119 "/>
<path fill="none" stroke="#2e3436" stroke-width="1.5" d="M54,-119C54,-125 48,-131 42,-131"/>
<polyline fill="none" stroke="#2e3436" stroke-width="1.5" points="42,-131 12,-131 "/>
<path fill="none" stroke="#2e3436" stroke-width="1.5" d="M12,-131C6,-131 0,-125 0,-119"/>
<polyline fill="none" stroke="#2e3436" stroke-width="1.5" points="0,-119 0,-107 "/>
<path fill="none" stroke="#2e3436" stroke-width="1.5" d="M0,-107C0,-101 6,-95 12,-95"/>
<text text-anchor="middle" x="27" y="-119.8" font-family="FreeSans" font-size="8.00" fill="#1c2021">Node[0]</text>
<polyline fill="none" stroke="#2e3436" stroke-width="1.5" points="0,-113 54,-113 "/>
<text text-anchor="middle" x="27" y="-101.8" font-family="FreeSans" font-size="8.00" fill="#1c2021"> </text>
</g>
<!-- N40 -->
<g id="node2" class="node"><title>N40</title>
<polygon fill="#ffffff" stroke="#ffffff" stroke-width="1.5" points="94.5,-95 125.5,-95 137.5,-107 137.5,-119 125.5,-131 94.5,-131 82.5,-119 82.5,-107 94.5,-95"/>
<path fill="#ffffff" stroke="#ffffff" stroke-width="1.5" d="M125.5,-95C131.5,-95 137.5,-101 137.5,-107"/>
<path fill="#ffffff" stroke="#ffffff" stroke-width="1.5" d="M137.5,-119C137.5,-125 131.5,-131 125.5,-131"/>
<path fill="#ffffff" stroke="#ffffff" stroke-width="1.5" d="M94.5,-131C88.5,-131 82.5,-125 82.5,-119"/>
<path fill="#ffffff" stroke="#ffffff" stroke-width="1.5" d="M82.5,-107C82.5,-101 88.5,-95 94.5,-95"/>
<polyline fill="none" stroke="#2e3436" stroke-width="1.5" points="94.5,-95 125.5,-95 "/>
<path fill="none" stroke="#2e3436" stroke-width="1.5" d="M125.5,-95C131.5,-95 137.5,-101 137.5,-107"/>
<polyline fill="none" stroke="#2e3436" stroke-width="1.5" points="137.5,-107 137.5,-119 "/>
<path fill="none" stroke="#2e3436" stroke-width="1.5" d="M137.5,-119C137.5,-125 131.5,-131 125.5,-131"/>
<polyline fill="none" stroke="#2e3436" stroke-width="1.5" points="125.5,-131 94.5,-131 "/>
<path fill="none" stroke="#2e3436" stroke-width="1.5" d="M94.5,-131C88.5,-131 82.5,-125 82.5,-119"/>
<polyline fill="none" stroke="#2e3436" stroke-width="1.5" points="82.5,-119 82.5,-107 "/>
<path fill="none" stroke="#2e3436" stroke-width="1.5" d="M82.5,-107C82.5,-101 88.5,-95 94.5,-95"/>
<text text-anchor="middle" x="110" y="-119.8" font-family="FreeSans" font-size="8.00" fill="#1c2021">Node[40]</text>
<polyline fill="none" stroke="#2e3436" stroke-width="1.5" points="82.5,-113 137.5,-113 "/>
<text text-anchor="middle" x="110" y="-101.8" font-family="FreeSans" font-size="8.00" fill="#1c2021"> </text>
</g>
<!-- N41 -->
<g id="node4" class="node"><title>N41</title>
<polygon fill="#ffffff" stroke="#ffffff" stroke-width="1.5" points="94.5,-1 125.5,-1 137.5,-13 137.5,-25 125.5,-37 94.5,-37 82.5,-25 82.5,-13 94.5,-1"/>
<path fill="#ffffff" stroke="#ffffff" stroke-width="1.5" d="M125.5,-1C131.5,-1 137.5,-7 137.5,-13"/>
<path fill="#ffffff" stroke="#ffffff" stroke-width="1.5" d="M137.5,-25C137.5,-31 131.5,-37 125.5,-37"/>
<path fill="#ffffff" stroke="#ffffff" stroke-width="1.5" d="M94.5,-37C88.5,-37 82.5,-31 82.5,-25"/>
<path fill="#ffffff" stroke="#ffffff" stroke-width="1.5" d="M82.5,-13C82.5,-7 88.5,-1 94.5,-1"/>
<polyline fill="none" stroke="#2e3436" stroke-width="1.5" points="94.5,-1 125.5,-1 "/>
<path fill="none" stroke="#2e3436" stroke-width="1.5" d="M125.5,-1C131.5,-1 137.5,-7 137.5,-13"/>
<polyline fill="none" stroke="#2e3436" stroke-width="1.5" points="137.5,-13 137.5,-25 "/>
<path fill="none" stroke="#2e3436" stroke-width="1.5" d="M137.5,-25C137.5,-31 131.5,-37 125.5,-37"/>
<polyline fill="none" stroke="#2e3436" stroke-width="1.5" points="125.5,-37 94.5,-37 "/>
<path fill="none" stroke="#2e3436" stroke-width="1.5" d="M94.5,-37C88.5,-37 82.5,-31 82.5,-25"/>
<polyline fill="none" stroke="#2e3436" stroke-width="1.5" points="82.5,-25 82.5,-13 "/>
<path fill="none" stroke="#2e3436" stroke-width="1.5" d="M82.5,-13C82.5,-7 88.5,-1 94.5,-1"/>
<text text-anchor="middle" x="110" y="-25.8" font-family="FreeSans" font-size="8.00" fill="#1c2021">Node[41]</text>
<polyline fill="none" stroke="#2e3436" stroke-width="1.5" points="82.5,-19 137.5,-19 "/>
<text text-anchor="middle" x="110" y="-7.8" font-family="FreeSans" font-size="8.00" fill="#1c2021"> </text>
</g>
<!-- N40&#45;&gt;N41 -->
<g id="edge2" class="edge"><title>N40&#45;&gt;N41</title>
<path fill="none" stroke="#2e3436" stroke-width="2" d="M110,-94.8759C110,-80.7014 110,-60.806 110,-44.944"/>
<polygon fill="#2e3436" stroke="#2e3436" points="110,-37.0685 113.375,-44.5685 110.5,-40.8185 110.5,-44.5685 110,-44.5685 109.5,-44.5685 109.5,-40.8185 106.625,-44.5685 110,-37.0685 110,-37.0685"/>
<text text-anchor="middle" x="138.5" y="-68.8" font-family="FreeSans" font-size="8.00" fill="#2e3436">KNOWS</text>
<text text-anchor="start" x="110" y="-58.8" font-family="FreeSans" font-size="8.00" fill="#2e3436">jim = &#39;tobias&#39;</text>
</g>
</g>
</svg>
