<?xml version="1.0" encoding="UTF-8" standalone="no"?>
<!DOCTYPE svg PUBLIC "-//W3C//DTD SVG 1.1//EN"
 "http://www.w3.org/Graphics/SVG/1.1/DTD/svg11.dtd">
<!-- Generated by graphviz version 2.26.3 (20100126.1600)
 -->
<!-- Title: g Pages: 1 -->
<svg width="228pt" height="130pt"
 viewBox="0.00 0.00 228.00 130.00" xmlns="http://www.w3.org/2000/svg" xmlns:xlink="http://www.w3.org/1999/xlink">
<g id="graph1" class="graph" transform="scale(1 1) rotate(0) translate(4 126)">
<title>g</title>
<polygon fill="white" stroke="white" points="-4,5 -4,-126 225,-126 225,5 -4,5"/>
<!-- N0 -->
<g id="node1" class="node"><title>N0</title>
<polygon fill="#ffffff" stroke="#ffffff" stroke-width="1.5" points="12,-85 42,-85 54,-97 54,-109 42,-121 12,-121 0,-109 0,-97 12,-85"/>
<path fill="#ffffff" stroke="#ffffff" stroke-width="1.5" d="M42,-85C48,-85 54,-91 54,-97"/>
<path fill="#ffffff" stroke="#ffffff" stroke-width="1.5" d="M54,-109C54,-115 48,-121 42,-121"/>
<path fill="#ffffff" stroke="#ffffff" stroke-width="1.5" d="M12,-121C6,-121 0,-115 0,-109"/>
<path fill="#ffffff" stroke="#ffffff" stroke-width="1.5" d="M0,-97C0,-91 6,-85 12,-85"/>
<polyline fill="none" stroke="#2e3436" stroke-width="1.5" points="12,-85 42,-85 "/>
<path fill="none" stroke="#2e3436" stroke-width="1.5" d="M42,-85C48,-85 54,-91 54,-97"/>
<polyline fill="none" stroke="#2e3436" stroke-width="1.5" points="54,-97 54,-109 "/>
<path fill="none" stroke="#2e3436" stroke-width="1.5" d="M54,-109C54,-115 48,-121 42,-121"/>
<polyline fill="none" stroke="#2e3436" stroke-width="1.5" points="42,-121 12,-121 "/>
<path fill="none" stroke="#2e3436" stroke-width="1.5" d="M12,-121C6,-121 0,-115 0,-109"/>
<polyline fill="none" stroke="#2e3436" stroke-width="1.5" points="0,-109 0,-97 "/>
<path fill="none" stroke="#2e3436" stroke-width="1.5" d="M0,-97C0,-91 6,-85 12,-85"/>
<text text-anchor="middle" x="27" y="-109.8" font-family="FreeSans" font-size="8.00" fill="#1c2021">Node[0]</text>
<polyline fill="none" stroke="#2e3436" stroke-width="1.5" points="0,-103 54,-103 "/>
<text text-anchor="middle" x="27" y="-91.8" font-family="FreeSans" font-size="8.00" fill="#1c2021"> </text>
</g>
<!-- N16 -->
<g id="node2" class="node"><title>N16</title>
<polygon fill="#ffffff" stroke="#ffffff" stroke-width="1.5" points="94.5,-85 125.5,-85 137.5,-97 137.5,-109 125.5,-121 94.5,-121 82.5,-109 82.5,-97 94.5,-85"/>
<path fill="#ffffff" stroke="#ffffff" stroke-width="1.5" d="M125.5,-85C131.5,-85 137.5,-91 137.5,-97"/>
<path fill="#ffffff" stroke="#ffffff" stroke-width="1.5" d="M137.5,-109C137.5,-115 131.5,-121 125.5,-121"/>
<path fill="#ffffff" stroke="#ffffff" stroke-width="1.5" d="M94.5,-121C88.5,-121 82.5,-115 82.5,-109"/>
<path fill="#ffffff" stroke="#ffffff" stroke-width="1.5" d="M82.5,-97C82.5,-91 88.5,-85 94.5,-85"/>
<polyline fill="none" stroke="#2e3436" stroke-width="1.5" points="94.5,-85 125.5,-85 "/>
<path fill="none" stroke="#2e3436" stroke-width="1.5" d="M125.5,-85C131.5,-85 137.5,-91 137.5,-97"/>
<polyline fill="none" stroke="#2e3436" stroke-width="1.5" points="137.5,-97 137.5,-109 "/>
<path fill="none" stroke="#2e3436" stroke-width="1.5" d="M137.5,-109C137.5,-115 131.5,-121 125.5,-121"/>
<polyline fill="none" stroke="#2e3436" stroke-width="1.5" points="125.5,-121 94.5,-121 "/>
<path fill="none" stroke="#2e3436" stroke-width="1.5" d="M94.5,-121C88.5,-121 82.5,-115 82.5,-109"/>
<polyline fill="none" stroke="#2e3436" stroke-width="1.5" points="82.5,-109 82.5,-97 "/>
<path fill="none" stroke="#2e3436" stroke-width="1.5" d="M82.5,-97C82.5,-91 88.5,-85 94.5,-85"/>
<text text-anchor="middle" x="110" y="-109.8" font-family="FreeSans" font-size="8.00" fill="#1c2021">Node[16]</text>
<polyline fill="none" stroke="#2e3436" stroke-width="1.5" points="82.5,-103 137.5,-103 "/>
<text text-anchor="middle" x="110" y="-91.8" font-family="FreeSans" font-size="8.00" fill="#1c2021"> </text>
</g>
<!-- N17 -->
<g id="node4" class="node"><title>N17</title>
<polygon fill="#ffffff" stroke="#ffffff" stroke-width="1.5" points="94.5,-1 125.5,-1 137.5,-13 137.5,-25 125.5,-37 94.5,-37 82.5,-25 82.5,-13 94.5,-1"/>
<path fill="#ffffff" stroke="#ffffff" stroke-width="1.5" d="M125.5,-1C131.5,-1 137.5,-7 137.5,-13"/>
<path fill="#ffffff" stroke="#ffffff" stroke-width="1.5" d="M137.5,-25C137.5,-31 131.5,-37 125.5,-37"/>
<path fill="#ffffff" stroke="#ffffff" stroke-width="1.5" d="M94.5,-37C88.5,-37 82.5,-31 82.5,-25"/>
<path fill="#ffffff" stroke="#ffffff" stroke-width="1.5" d="M82.5,-13C82.5,-7 88.5,-1 94.5,-1"/>
<polyline fill="none" stroke="#2e3436" stroke-width="1.5" points="94.5,-1 125.5,-1 "/>
<path fill="none" stroke="#2e3436" stroke-width="1.5" d="M125.5,-1C131.5,-1 137.5,-7 137.5,-13"/>
<polyline fill="none" stroke="#2e3436" stroke-width="1.5" points="137.5,-13 137.5,-25 "/>
<path fill="none" stroke="#2e3436" stroke-width="1.5" d="M137.5,-25C137.5,-31 131.5,-37 125.5,-37"/>
<polyline fill="none" stroke="#2e3436" stroke-width="1.5" points="125.5,-37 94.5,-37 "/>
<path fill="none" stroke="#2e3436" stroke-width="1.5" d="M94.5,-37C88.5,-37 82.5,-31 82.5,-25"/>
<polyline fill="none" stroke="#2e3436" stroke-width="1.5" points="82.5,-25 82.5,-13 "/>
<path fill="none" stroke="#2e3436" stroke-width="1.5" d="M82.5,-13C82.5,-7 88.5,-1 94.5,-1"/>
<text text-anchor="middle" x="110" y="-25.8" font-family="FreeSans" font-size="8.00" fill="#1c2021">Node[17]</text>
<polyline fill="none" stroke="#2e3436" stroke-width="1.5" points="82.5,-19 137.5,-19 "/>
<text text-anchor="middle" x="110" y="-7.8" font-family="FreeSans" font-size="8.00" fill="#1c2021"> </text>
</g>
<!-- N16&#45;&gt;N17 -->
<g id="edge2" class="edge"><title>N16&#45;&gt;N17</title>
<path fill="none" stroke="#2e3436" stroke-width="2" d="M110,-84.7733C110,-73.1053 110,-57.7874 110,-44.8699"/>
<polygon fill="#2e3436" stroke="#2e3436" points="110,-37.1912 113.375,-44.6911 110.5,-40.9412 110.5,-44.6912 110,-44.6912 109.5,-44.6912 109.5,-40.9412 106.625,-44.6912 110,-37.1912 110,-37.1912"/>
<text text-anchor="middle" x="117" y="-58.8" font-family="FreeSans" font-size="8.00" fill="#2e3436">foo</text>
</g>
<!-- N18 -->
<g id="node5" class="node"><title>N18</title>
<polygon fill="#ffffff" stroke="#ffffff" stroke-width="1.5" points="177.5,-85 208.5,-85 220.5,-97 220.5,-109 208.5,-121 177.5,-121 165.5,-109 165.5,-97 177.5,-85"/>
<path fill="#ffffff" stroke="#ffffff" stroke-width="1.5" d="M208.5,-85C214.5,-85 220.5,-91 220.5,-97"/>
<path fill="#ffffff" stroke="#ffffff" stroke-width="1.5" d="M220.5,-109C220.5,-115 214.5,-121 208.5,-121"/>
<path fill="#ffffff" stroke="#ffffff" stroke-width="1.5" d="M177.5,-121C171.5,-121 165.5,-115 165.5,-109"/>
<path fill="#ffffff" stroke="#ffffff" stroke-width="1.5" d="M165.5,-97C165.5,-91 171.5,-85 177.5,-85"/>
<polyline fill="none" stroke="#2e3436" stroke-width="1.5" points="177.5,-85 208.5,-85 "/>
<path fill="none" stroke="#2e3436" stroke-width="1.5" d="M208.5,-85C214.5,-85 220.5,-91 220.5,-97"/>
<polyline fill="none" stroke="#2e3436" stroke-width="1.5" points="220.5,-97 220.5,-109 "/>
<path fill="none" stroke="#2e3436" stroke-width="1.5" d="M220.5,-109C220.5,-115 214.5,-121 208.5,-121"/>
<polyline fill="none" stroke="#2e3436" stroke-width="1.5" points="208.5,-121 177.5,-121 "/>
<path fill="none" stroke="#2e3436" stroke-width="1.5" d="M177.5,-121C171.5,-121 165.5,-115 165.5,-109"/>
<polyline fill="none" stroke="#2e3436" stroke-width="1.5" points="165.5,-109 165.5,-97 "/>
<path fill="none" stroke="#2e3436" stroke-width="1.5" d="M165.5,-97C165.5,-91 171.5,-85 177.5,-85"/>
<text text-anchor="middle" x="193" y="-109.8" font-family="FreeSans" font-size="8.00" fill="#1c2021">Node[18]</text>
<polyline fill="none" stroke="#2e3436" stroke-width="1.5" points="165.5,-103 220.5,-103 "/>
<text text-anchor="middle" x="193" y="-91.8" font-family="FreeSans" font-size="8.00" fill="#1c2021"> </text>
</g>
<!-- N19 -->
<g id="node7" class="node"><title>N19</title>
<polygon fill="#ffffff" stroke="#ffffff" stroke-width="1.5" points="177.5,-1 208.5,-1 220.5,-13 220.5,-25 208.5,-37 177.5,-37 165.5,-25 165.5,-13 177.5,-1"/>
<path fill="#ffffff" stroke="#ffffff" stroke-width="1.5" d="M208.5,-1C214.5,-1 220.5,-7 220.5,-13"/>
<path fill="#ffffff" stroke="#ffffff" stroke-width="1.5" d="M220.5,-25C220.5,-31 214.5,-37 208.5,-37"/>
<path fill="#ffffff" stroke="#ffffff" stroke-width="1.5" d="M177.5,-37C171.5,-37 165.5,-31 165.5,-25"/>
<path fill="#ffffff" stroke="#ffffff" stroke-width="1.5" d="M165.5,-13C165.5,-7 171.5,-1 177.5,-1"/>
<polyline fill="none" stroke="#2e3436" stroke-width="1.5" points="177.5,-1 208.5,-1 "/>
<path fill="none" stroke="#2e3436" stroke-width="1.5" d="M208.5,-1C214.5,-1 220.5,-7 220.5,-13"/>
<polyline fill="none" stroke="#2e3436" stroke-width="1.5" points="220.5,-13 220.5,-25 "/>
<path fill="none" stroke="#2e3436" stroke-width="1.5" d="M220.5,-25C220.5,-31 214.5,-37 208.5,-37"/>
<polyline fill="none" stroke="#2e3436" stroke-width="1.5" points="208.5,-37 177.5,-37 "/>
<path fill="none" stroke="#2e3436" stroke-width="1.5" d="M177.5,-37C171.5,-37 165.5,-31 165.5,-25"/>
<polyline fill="none" stroke="#2e3436" stroke-width="1.5" points="165.5,-25 165.5,-13 "/>
<path fill="none" stroke="#2e3436" stroke-width="1.5" d="M165.5,-13C165.5,-7 171.5,-1 177.5,-1"/>
<text text-anchor="middle" x="193" y="-25.8" font-family="FreeSans" font-size="8.00" fill="#1c2021">Node[19]</text>
<polyline fill="none" stroke="#2e3436" stroke-width="1.5" points="165.5,-19 220.5,-19 "/>
<text text-anchor="middle" x="193" y="-7.8" font-family="FreeSans" font-size="8.00" fill="#1c2021"> </text>
</g>
<!-- N18&#45;&gt;N19 -->
<g id="edge4" class="edge"><title>N18&#45;&gt;N19</title>
<path fill="none" stroke="#4e9a06" stroke-width="2" d="M193,-84.7733C193,-73.1053 193,-57.7874 193,-44.8699"/>
<polygon fill="#4e9a06" stroke="#4e9a06" points="193,-37.1912 196.375,-44.6911 193.5,-40.9412 193.5,-44.6912 193,-44.6912 192.5,-44.6912 192.5,-40.9412 189.625,-44.6912 193,-37.1912 193,-37.1912"/>
<text text-anchor="middle" x="200.5" y="-58.8" font-family="FreeSans" font-size="8.00" fill="#4e9a06">bar</text>
</g>
</g>
</svg>
