<?xml version="1.0" encoding="UTF-8" standalone="no"?>
<!DOCTYPE svg PUBLIC "-//W3C//DTD SVG 1.1//EN"
 "http://www.w3.org/Graphics/SVG/1.1/DTD/svg11.dtd">
<!-- Generated by graphviz version 2.26.3 (20100126.1600)
 -->
<!-- Title: g Pages: 1 -->
<svg width="175pt" height="56pt"
 viewBox="0.00 0.00 175.00 56.00" xmlns="http://www.w3.org/2000/svg" xmlns:xlink="http://www.w3.org/1999/xlink">
<g id="graph1" class="graph" transform="scale(1 1) rotate(0) translate(4 52)">
<title>g</title>
<polygon fill="white" stroke="white" points="-4,5 -4,-52 172,-52 172,5 -4,5"/>
<!-- N0 -->
<g id="node1" class="node"><title>N0</title>
<polygon fill="#ffffff" stroke="#ffffff" stroke-width="1.5" points="12,-6 42,-6 54,-18 54,-30 42,-42 12,-42 0,-30 0,-18 12,-6"/>
<path fill="#ffffff" stroke="#ffffff" stroke-width="1.5" d="M42,-6C48,-6 54,-12 54,-18"/>
<path fill="#ffffff" stroke="#ffffff" stroke-width="1.5" d="M54,-30C54,-36 48,-42 42,-42"/>
<path fill="#ffffff" stroke="#ffffff" stroke-width="1.5" d="M12,-42C6,-42 0,-36 0,-30"/>
<path fill="#ffffff" stroke="#ffffff" stroke-width="1.5" d="M0,-18C0,-12 6,-6 12,-6"/>
<polyline fill="none" stroke="#2e3436" stroke-width="1.5" points="12,-6 42,-6 "/>
<path fill="none" stroke="#2e3436" stroke-width="1.5" d="M42,-6C48,-6 54,-12 54,-18"/>
<polyline fill="none" stroke="#2e3436" stroke-width="1.5" points="54,-18 54,-30 "/>
<path fill="none" stroke="#2e3436" stroke-width="1.5" d="M54,-30C54,-36 48,-42 42,-42"/>
<polyline fill="none" stroke="#2e3436" stroke-width="1.5" points="42,-42 12,-42 "/>
<path fill="none" stroke="#2e3436" stroke-width="1.5" d="M12,-42C6,-42 0,-36 0,-30"/>
<polyline fill="none" stroke="#2e3436" stroke-width="1.5" points="0,-30 0,-18 "/>
<path fill="none" stroke="#2e3436" stroke-width="1.5" d="M0,-18C0,-12 6,-6 12,-6"/>
<text text-anchor="middle" x="27" y="-30.8" font-family="FreeSans" font-size="8.00" fill="#1c2021">Node[0]</text>
<polyline fill="none" stroke="#2e3436" stroke-width="1.5" points="0,-24 54,-24 "/>
<text text-anchor="middle" x="27" y="-12.8" font-family="FreeSans" font-size="8.00" fill="#1c2021"> </text>
</g>
<!-- N15 -->
<g id="node2" class="node"><title>N15</title>
<polygon fill="#ffffff" stroke="#ffffff" stroke-width="1.5" points="94.5,-1 155.5,-1 167.5,-13 167.5,-35 155.5,-47 94.5,-47 82.5,-35 82.5,-13 94.5,-1"/>
<path fill="#ffffff" stroke="#ffffff" stroke-width="1.5" d="M155.5,-1C161.5,-1 167.5,-7 167.5,-13"/>
<path fill="#ffffff" stroke="#ffffff" stroke-width="1.5" d="M167.5,-35C167.5,-41 161.5,-47 155.5,-47"/>
<path fill="#ffffff" stroke="#ffffff" stroke-width="1.5" d="M94.5,-47C88.5,-47 82.5,-41 82.5,-35"/>
<path fill="#ffffff" stroke="#ffffff" stroke-width="1.5" d="M82.5,-13C82.5,-7 88.5,-1 94.5,-1"/>
<polyline fill="none" stroke="#2e3436" stroke-width="1.5" points="94.5,-1 155.5,-1 "/>
<path fill="none" stroke="#2e3436" stroke-width="1.5" d="M155.5,-1C161.5,-1 167.5,-7 167.5,-13"/>
<polyline fill="none" stroke="#2e3436" stroke-width="1.5" points="167.5,-13 167.5,-35 "/>
<path fill="none" stroke="#2e3436" stroke-width="1.5" d="M167.5,-35C167.5,-41 161.5,-47 155.5,-47"/>
<polyline fill="none" stroke="#2e3436" stroke-width="1.5" points="155.5,-47 94.5,-47 "/>
<path fill="none" stroke="#2e3436" stroke-width="1.5" d="M94.5,-47C88.5,-47 82.5,-41 82.5,-35"/>
<polyline fill="none" stroke="#2e3436" stroke-width="1.5" points="82.5,-35 82.5,-13 "/>
<path fill="none" stroke="#2e3436" stroke-width="1.5" d="M82.5,-13C82.5,-7 88.5,-1 94.5,-1"/>
<text text-anchor="middle" x="125" y="-35.8" font-family="FreeSans" font-size="8.00" fill="#1c2021">Node[15]</text>
<polyline fill="none" stroke="#2e3436" stroke-width="1.5" points="82.5,-29 167.5,-29 "/>
<text text-anchor="start" x="90.5" y="-17.8" font-family="FreeSans" font-size="8.00" fill="#1c2021">name = &#39;Tobias&#39;</text>
<text text-anchor="start" x="90.5" y="-7.8" font-family="FreeSans" font-size="8.00" fill="#1c2021">sequence = 1</text>
</g>
</g>
</svg>
