<?xml version="1.0" encoding="UTF-8" standalone="no"?>
<!DOCTYPE svg PUBLIC "-//W3C//DTD SVG 1.1//EN"
 "http://www.w3.org/Graphics/SVG/1.1/DTD/svg11.dtd">
<!-- Generated by graphviz version 2.26.3 (20100126.1600)
 -->
<!-- Title: g Pages: 1 -->
<svg width="181pt" height="56pt"
 viewBox="0.00 0.00 181.00 56.00" xmlns="http://www.w3.org/2000/svg" xmlns:xlink="http://www.w3.org/1999/xlink">
<g id="graph1" class="graph" transform="scale(1 1) rotate(0) translate(4 52)">
<title>g</title>
<polygon fill="white" stroke="white" points="-4,5 -4,-52 178,-52 178,5 -4,5"/>
<!-- N0 -->
<g id="node1" class="node"><title>N0</title>
<polygon fill="#ffffff" stroke="#ffffff" stroke-width="1.5" points="12,-6 42,-6 54,-18 54,-30 42,-42 12,-42 0,-30 0,-18 12,-6"/>
<path fill="#ffffff" stroke="#ffffff" stroke-width="1.5" d="M42,-6C48,-6 54,-12 54,-18"/>
<path fill="#ffffff" stroke="#ffffff" stroke-width="1.5" d="M54,-30C54,-36 48,-42 42,-42"/>
<path fill="#ffffff" stroke="#ffffff" stroke-width="1.5" d="M12,-42C6,-42 0,-36 0,-30"/>
<path fill="#ffffff" stroke="#ffffff" stroke-width="1.5" d="M0,-18C0,-12 6,-6 12,-6"/>
<polyline fill="none" stroke="#2e3436" stroke-width="1.5" points="12,-6 42,-6 "/>
<path fill="none" stroke="#2e3436" stroke-width="1.5" d="M42,-6C48,-6 54,-12 54,-18"/>
<polyline fill="none" stroke="#2e3436" stroke-width="1.5" points="54,-18 54,-30 "/>
<path fill="none" stroke="#2e3436" stroke-width="1.5" d="M54,-30C54,-36 48,-42 42,-42"/>
<polyline fill="none" stroke="#2e3436" stroke-width="1.5" points="42,-42 12,-42 "/>
<path fill="none" stroke="#2e3436" stroke-width="1.5" d="M12,-42C6,-42 0,-36 0,-30"/>
<polyline fill="none" stroke="#2e3436" stroke-width="1.5" points="0,-30 0,-18 "/>
<path fill="none" stroke="#2e3436" stroke-width="1.5" d="M0,-18C0,-12 6,-6 12,-6"/>
<text text-anchor="middle" x="27" y="-30.8" font-family="FreeSans" font-size="8.00" fill="#1c2021">Node[0]</text>
<polyline fill="none" stroke="#2e3436" stroke-width="1.5" points="0,-24 54,-24 "/>
<text text-anchor="middle" x="27" y="-12.8" font-family="FreeSans" font-size="8.00" fill="#1c2021"> </text>
</g>
<!-- N11 -->
<g id="node2" class="node"><title>N11</title>
<polygon fill="#ffffff" stroke="#ffffff" stroke-width="1.5" points="95,-1 161,-1 173,-13 173,-35 161,-47 95,-47 83,-35 83,-13 95,-1"/>
<path fill="#ffffff" stroke="#ffffff" stroke-width="1.5" d="M161,-1C167,-1 173,-7 173,-13"/>
<path fill="#ffffff" stroke="#ffffff" stroke-width="1.5" d="M173,-35C173,-41 167,-47 161,-47"/>
<path fill="#ffffff" stroke="#ffffff" stroke-width="1.5" d="M95,-47C89,-47 83,-41 83,-35"/>
<path fill="#ffffff" stroke="#ffffff" stroke-width="1.5" d="M83,-13C83,-7 89,-1 95,-1"/>
<polyline fill="none" stroke="#2e3436" stroke-width="1.5" points="95,-1 161,-1 "/>
<path fill="none" stroke="#2e3436" stroke-width="1.5" d="M161,-1C167,-1 173,-7 173,-13"/>
<polyline fill="none" stroke="#2e3436" stroke-width="1.5" points="173,-13 173,-35 "/>
<path fill="none" stroke="#2e3436" stroke-width="1.5" d="M173,-35C173,-41 167,-47 161,-47"/>
<polyline fill="none" stroke="#2e3436" stroke-width="1.5" points="161,-47 95,-47 "/>
<path fill="none" stroke="#2e3436" stroke-width="1.5" d="M95,-47C89,-47 83,-41 83,-35"/>
<polyline fill="none" stroke="#2e3436" stroke-width="1.5" points="83,-35 83,-13 "/>
<path fill="none" stroke="#2e3436" stroke-width="1.5" d="M83,-13C83,-7 89,-1 95,-1"/>
<text text-anchor="middle" x="128" y="-35.8" font-family="FreeSans" font-size="8.00" fill="#1c2021">Node[11]</text>
<polyline fill="none" stroke="#2e3436" stroke-width="1.5" points="83,-29 173,-29 "/>
<text text-anchor="start" x="91" y="-17.8" font-family="FreeSans" font-size="8.00" fill="#1c2021">kvkey2 = &#39;value2&#39;</text>
<text text-anchor="start" x="91" y="-7.8" font-family="FreeSans" font-size="8.00" fill="#1c2021">kvkey1 = &#39;value2&#39;</text>
</g>
</g>
</svg>
